# xmcd CD database file
#
# Track frame offsets:
#	150
#	23017
#	46520
#	69362
#
# Disc length: 1235 seconds
#
# Revision: 0
# Processed by: cddbd v1.5PL3 Copyright (c) Steve Scherf et al.
# Submitted via: CDex 1.51
#
DISCID=2204d104
DTITLE=CHAGE Presents MULTI MAX - どうだい
DYEAR=1996
DGENRE=JPop
TTITLE0=どうだい
TTITLE1=Mr.LIVERPOOL
TTITLE2=どうだい (オリジナル・カラオケ)
TTITLE3=Mr.LIVERPOOL (オリジナル・カラオケ)
EXTD=YEAR: 1996
EXTT0=
EXTT1=
EXTT2=
EXTT3=
PLAYORDER=
